<?xml version="1.0" standalone="no"?>
<!DOCTYPE svg PUBLIC "-//W3C//DTD SVG 20010904//EN"
 "http://www.w3.org/TR/2001/REC-SVG-20010904/DTD/svg10.dtd">
<svg version="1.0" xmlns="http://www.w3.org/2000/svg"
 width="128.000000pt" height="128.000000pt" viewBox="0 0 128.000000 128.000000"
 preserveAspectRatio="xMidYMid meet">
<metadata>
Created by potrace 1.14, written by Peter Selinger 2001-2017
</metadata>
<g transform="translate(0.000000,128.000000) scale(0.100000,-0.100000)"
fill="#000000" stroke="none">
<path d="M379 1109 c-6 -12 -9 -40 -7 -63 l3 -42 -144 58 c-152 61 -175 66
-204 44 -27 -21 -25 -51 18 -286 4 -19 8 -44 10 -55 1 -11 12 -72 23 -135 12
-63 28 -153 36 -200 19 -102 19 -120 5 -120 -36 0 -81 -124 -58 -161 6 -11 16
-11 51 0 24 7 63 14 87 15 38 2 50 9 78 41 18 21 33 43 33 49 1 11 169 130
175 124 1 -2 6 -22 10 -45 6 -39 5 -43 -14 -43 -23 0 -29 -25 -8 -34 6 -3 1
-4 -13 -3 -33 3 -35 39 -2 47 27 6 31 23 7 28 -21 5 -65 -25 -65 -43 0 -8 -4
-15 -10 -15 -19 0 -10 -22 12 -28 21 -5 21 -6 2 -13 -13 -5 -2 -8 32 -8 49 -1
84 16 67 32 -3 4 -2 7 4 7 6 0 16 -7 23 -15 18 -21 57 -19 99 7 20 13 47 21
64 19 37 -4 58 15 51 45 -4 14 -2 24 4 24 6 0 13 -14 17 -30 7 -31 20 -39 28
-17 2 6 0 24 -4 39 -4 15 -4 30 0 33 12 7 21 -6 21 -30 0 -29 17 -43 46 -37
30 5 51 39 35 55 -6 6 -11 17 -11 25 0 8 -7 20 -15 26 -11 9 25 40 192 161
113 82 210 160 216 172 23 51 3 65 -220 153 -114 45 -232 93 -261 106 -29 13
-55 24 -59 24 -3 0 -68 25 -145 55 -152 60 -191 67 -209 34z m471 -739 c0 -5
-2 -10 -4 -10 -3 0 -8 5 -11 10 -3 6 -1 10 4 10 6 0 11 -4 11 -10z m20 -34 c0
-2 -7 -6 -15 -10 -8 -3 -15 -1 -15 4 0 6 7 10 15 10 8 0 15 -2 15 -4z m-150
-30 c0 -2 -7 -7 -16 -10 -8 -3 -12 -2 -9 4 6 10 25 14 25 6z"/>
<path d="M1053 430 c-5 -19 -7 -20 -29 -5 -29 19 -34 19 -34 1 0 -7 11 -21 25
-30 14 -9 24 -20 24 -24 -3 -20 3 -32 16 -32 10 0 14 8 11 23 -2 12 3 34 10
49 18 34 17 38 -2 38 -9 0 -18 -9 -21 -20z"/>
<path d="M921 423 c-21 -4 -23 -8 -16 -51 4 -26 12 -50 17 -53 10 -7 65 5 76
15 8 9 -27 19 -43 12 -8 -3 -15 -2 -15 3 0 5 9 11 21 14 26 7 16 27 -14 28
-21 1 -21 1 2 8 14 4 26 12 29 19 4 12 -11 13 -57 5z"/>
</g>
</svg>
